# xmcd
#
# Track frame offsets:
#	150
#	15942
#	31847
#	48446
#	66504
#	83815
#	97123
#	114101
#	129166
#	145514
#	161198
#	176808
#
# Disc length: 2701 seconds
#
# Revision: 0
# Processed by: cddbd v1.5.2PL0 Copyright (c) Steve Scherf et al.
# Submitted via: EasyCDDAExtractor 12.0.1.1
#
DISCID=940a8b0c
DTITLE=Francine Jordi - Halt mich
DYEAR=1900
DGENRE=Folk-Rock
TTITLE0=Halt mich noch einmal
TTITLE1=Gib mir Zeit
TTITLE2=Die Entdeckung der Gefühle
TTITLE3=So lass ich dich nicht geh'n
TTITLE4=Kleiner Engel
TTITLE5=Das Feuer des Flamenco
TTITLE6=So wie du
TTITLE7=Hör auf dein Herz
TTITLE8=Du bist mehr
TTITLE9=Zeig ein bisschen Gefühl
TTITLE10=Zurück zum Leben
TTITLE11=Caterina Valente Medley
EXTD=
EXTT0=
EXTT1=
EXTT2=
EXTT3=
EXTT4=
EXTT5=
EXTT6=
EXTT7=
EXTT8=
EXTT9=
EXTT10=
EXTT11=
PLAYORDER=
